<?xml version="1.0" encoding="UTF-8" standalone="no"?>
<!DOCTYPE svg PUBLIC "-//W3C//DTD SVG 1.1//EN" "http://www.w3.org/Graphics/SVG/1.1/DTD/svg11.dtd">
<!-- Created with Vectornator (http://vectornator.io/) -->
<svg height="100%" stroke-miterlimit="10" style="fill-rule:nonzero;clip-rule:evenodd;stroke-linecap:round;stroke-linejoin:round;" version="1.1" viewBox="0 0 419.58 297.675" width="100%" xml:space="preserve" xmlns="http://www.w3.org/2000/svg" xmlns:vectornator="http://vectornator.io" xmlns:xlink="http://www.w3.org/1999/xlink">
<defs/>
<g id="Слой-1" vectornator:layerName="Слой 1">
<path d="M113.057 158.392C113.057 114.473 153.008 78.8704 202.29 78.8704C251.573 78.8704 291.524 114.473 291.524 158.392C291.524 202.311 251.573 237.914 202.29 237.914C153.008 237.914 113.057 202.311 113.057 158.392Z" fill="#ffffff" fill-rule="nonzero" opacity="1" stroke="#000000" stroke-linecap="butt" stroke-linejoin="round" stroke-width="3"/>
<path d="M186.249 165.96C186.249 150.258 198.984 137.529 214.693 137.529C230.402 137.529 243.137 150.258 243.137 165.96C243.137 181.662 230.402 194.391 214.693 194.391C198.984 194.391 186.249 181.662 186.249 165.96Z" fill="#f1d352" fill-rule="nonzero" opacity="1" stroke="#000000" stroke-linecap="butt" stroke-linejoin="round" stroke-width="3"/>
<path d="M205.7 176.351C205.7 174.698 208.816 173.358 212.66 173.358C216.504 173.358 219.62 174.698 219.62 176.351C219.62 178.003 216.504 179.343 212.66 179.343C208.816 179.343 205.7 178.003 205.7 176.351Z" fill="#ffffff" fill-rule="nonzero" opacity="1" stroke="#fbfbfd" stroke-linecap="butt" stroke-linejoin="round" stroke-width="3"/>
</g>
</svg>
